<svg width="54" height="54" viewBox="0 0 54 54" fill="none" xmlns="http://www.w3.org/2000/svg">
<g clip-path="url(#clip0_401_82)">
<path d="M18.6932 6.55645C24.4712 0.0606987 34.0382 -1.8428 41.9042 1.90795C52.3532 6.88045 56.167 19.5614 50.4745 29.3444L37.6787 51.327C36.961 52.5577 35.7842 53.451 34.405 53.8177C33.0257 54.1845 31.5542 53.9955 30.3145 53.2867L45.8102 26.6647C49.939 19.5659 47.1782 10.3679 39.6047 6.7432C33.9167 4.0252 26.9755 5.3842 22.7702 10.0574C20.4505 12.6202 19.1522 15.9367 19.1072 19.3837C19.0667 22.8307 20.2862 26.1764 22.5362 28.7999C22.939 29.2724 23.3732 29.7134 23.839 30.1229L14.7917 45.6907C14.4385 46.3049 13.9705 46.8382 13.4035 47.2635C12.8432 47.6887 12.202 48.0037 11.518 48.1882C10.8362 48.3704 10.1207 48.4132 9.42547 48.3255C8.72122 48.2332 8.04397 48.0037 7.43422 47.655L17.2532 30.7507C15.8425 28.7324 14.8277 26.4667 14.2652 24.0749L8.24647 34.4519C7.53322 35.6782 6.35197 36.576 4.97722 36.9427C3.59347 37.3117 2.12197 37.1204 0.886719 36.4094L16.4477 9.63895C17.1002 8.5432 17.8472 7.50595 18.6932 6.55645ZM36.655 15.0704C40.4035 17.2214 41.6995 22.0027 39.5282 25.7219L24.6062 51.3224C23.893 52.5532 22.7162 53.4487 21.3325 53.8177C19.9555 54.1822 18.4795 53.9954 17.2465 53.2844L31.1042 29.4434C29.9905 29.2184 28.9442 28.7504 28.033 28.0709C27.1217 27.3959 26.3612 26.5364 25.8257 25.5464C25.2812 24.5542 24.9595 23.4584 24.8852 22.3334C24.811 21.2062 24.9865 20.0789 25.3892 19.0259C25.7942 17.9729 26.4287 17.0167 27.2432 16.2314C28.0577 15.4439 29.032 14.8409 30.1075 14.4674C31.174 14.0894 32.317 13.9499 33.4487 14.0557C34.5782 14.1592 35.674 14.5057 36.655 15.0704ZM31.228 19.8832C30.9715 20.0789 30.7555 20.3242 30.5935 20.6032C30.355 21.0217 30.238 21.4987 30.2695 21.9824C30.301 22.4662 30.4765 22.9274 30.7735 23.3144C31.066 23.6902 31.471 23.9827 31.9322 24.1402C32.398 24.2932 32.893 24.3134 33.3632 24.1852C33.8335 24.0592 34.2542 23.7982 34.5782 23.4337C34.9 23.0714 35.1047 22.6237 35.17 22.1422C35.2307 21.6629 35.152 21.1747 34.9337 20.7427C34.7155 20.3039 34.3802 19.9462 33.9595 19.7077C33.676 19.5457 33.3677 19.4422 33.046 19.4017C32.7242 19.3567 32.4025 19.3792 32.092 19.4602C31.777 19.5457 31.4822 19.6874 31.228 19.8832Z" fill="#212931"/>
</g>
<defs>
<clipPath id="clip0_401_82">
<rect width="54" height="54" fill="white"/>
</clipPath>
</defs>
</svg>
