<svg width="54" height="57" viewBox="0 0 54 57" fill="none" xmlns="http://www.w3.org/2000/svg">
<g clip-path="url(#clip0_401_83)">
<path d="M37.7997 51.263H53.9997L28.0797 28.4794C27.7238 36.7547 31.1777 44.8507 37.7997 51.263Z" fill="#212931"/>
<path d="M5.40039 39.8713V56.9589L27.0004 29.6187C26.6332 29.6011 26.2658 29.5924 25.8982 29.5924C18.4395 29.5929 11.1942 33.2144 5.40039 39.8713Z" fill="#212931"/>
<path d="M0 5.69586L25.92 28.4794C26.2759 20.2044 22.822 12.1082 16.2 5.69586H0Z" fill="#212931"/>
<path d="M48.6 0L27 27.3401C34.8454 27.7156 42.5208 24.0723 48.6 17.0874V0Z" fill="#212931"/>
<path d="M27 28.4794C24.5787 35.0998 24.9444 41.8483 28.08 48.4153C31.32 50.1238 34.02 51.263 37.8 51.263C31.178 44.8507 27.7242 36.7547 28.08 28.4794H27Z" fill="#323D47"/>
<path d="M8.10039 29.6186C6.4806 33.0364 5.40039 35.8841 5.40039 39.8712C11.4794 32.8864 19.155 29.2435 27.0004 29.6186V28.4794C24.27 27.3685 21.5173 26.8138 18.7654 26.8138C15.1908 26.8141 11.618 27.7499 8.10039 29.6186Z" fill="#323D47"/>
<path d="M25.9202 28.4794H27.0002C29.4213 21.8591 29.0558 15.1103 25.9202 8.54381C22.6802 6.83504 19.9804 5.69586 16.2002 5.69586C22.8222 12.1082 26.276 20.2044 25.9202 28.4794Z" fill="#323D47"/>
<path d="M27 27.3401V28.4795C33.2764 31.0333 39.6744 30.6475 45.9 27.3401C47.52 23.923 48.6 21.075 48.6 17.0875C42.5208 24.0723 34.8454 27.7156 27 27.3401Z" fill="#323D47"/>
<path d="M15.1201 37.0233L28.0801 48.4153C24.9445 41.8483 24.5788 35.0998 27.0001 28.4795C26.6255 28.3477 26.1863 28.2845 25.7012 28.2845C21.9889 28.2848 15.5977 31.9858 15.1201 37.0233Z" fill="#1E2329"/>
<path d="M8.09961 29.6186C14.3252 26.3112 20.7232 25.9256 26.9996 28.4794C28.0796 25.0621 24.2996 16.5181 18.8996 15.9485L8.09961 29.6186Z" fill="#1E2329"/>
<path d="M26.9999 28.4794C30.2399 29.6186 38.3397 25.6315 38.8799 19.9356L25.9199 8.54382C29.0555 15.1103 29.4211 21.8591 26.9999 28.4794Z" fill="#1E2329"/>
<path d="M27.0001 28.4794C25.9201 31.8972 29.7001 40.4408 35.1001 41.0104L45.9001 27.34C39.6745 30.6474 33.2766 31.0332 27.0001 28.4794Z" fill="#1E2329"/>
<path d="M27.0004 27.0555C27.3584 27.0555 27.7018 27.2055 27.955 27.4726C28.2082 27.7396 28.3504 28.1018 28.3504 28.4795C28.3504 28.8571 28.2082 29.2193 27.955 29.4864C27.7018 29.7534 27.3584 29.9034 27.0004 29.9034C26.6423 29.9034 26.299 29.7534 26.0458 29.4864C25.7926 29.2193 25.6504 28.8571 25.6504 28.4795C25.6504 28.1018 25.7926 27.7396 26.0458 27.4726C26.299 27.2055 26.6423 27.0555 27.0004 27.0555Z" fill="#212931"/>
</g>
<defs>
<clipPath id="clip0_401_83">
<rect width="54" height="56.9589" fill="white"/>
</clipPath>
</defs>
</svg>
