<svg width="54" height="30" viewBox="0 0 54 30" fill="none" xmlns="http://www.w3.org/2000/svg">
<g clip-path="url(#clip0_401_76)">
<path d="M15.217 10.85C15.1999 11.3503 15.2691 11.8499 15.4222 12.33C15.58 12.7412 15.7751 13.1393 16.0054 13.52C16.0839 13.6339 16.1286 13.765 16.135 13.9C16.1236 14.0012 16.0863 14.0985 16.0262 14.1837C15.9661 14.2689 15.8849 14.3397 15.7894 14.39L14.7094 15.09C14.5697 15.1809 14.4048 15.2329 14.2342 15.24C14.1338 15.2367 14.0352 15.2146 13.9442 15.1751C13.8533 15.1355 13.7719 15.0794 13.705 15.01C13.4541 14.7802 13.2364 14.5214 13.057 14.24C12.877 13.96 12.6934 13.6267 12.5062 13.24C11.8737 13.971 11.0689 14.5582 10.1536 14.9569C9.23819 15.3555 8.23645 15.555 7.225 15.54C6.57183 15.5731 5.9181 15.4849 5.30231 15.2806C4.68651 15.0762 4.12111 14.7598 3.6394 14.35C3.19315 13.9297 2.84571 13.4284 2.61895 12.8777C2.39219 12.3269 2.29102 11.7387 2.3218 11.15C2.29318 10.5102 2.41998 9.87251 2.69288 9.28407C2.96578 8.69564 3.37781 8.1714 3.8986 7.75C5.14912 6.83817 6.71566 6.37956 8.305 6.46C8.94112 6.46172 9.57631 6.50516 10.2058 6.59C10.8682 6.67667 11.5558 6.79667 12.2686 6.95V5.73C12.3735 4.77391 12.0669 3.8181 11.4154 3.07C10.5819 2.47652 9.53462 2.201 8.4886 2.3C7.83713 2.30306 7.18829 2.3769 6.5554 2.52C5.89677 2.66583 5.25063 2.85635 4.6222 3.09C4.41905 3.17645 4.20977 3.24995 3.9958 3.31H3.715C3.463 3.31 3.337 3.13667 3.337 2.79V2C3.32156 1.7993 3.36642 1.59856 3.4666 1.42C3.60197 1.26629 3.77637 1.14604 3.9742 1.07C4.69701 0.749381 5.45335 0.498073 6.2314 0.320004C7.14514 0.10277 8.08524 -0.00477814 9.0286 4.30644e-06C10.7254 -0.139235 12.4131 0.345748 13.7266 1.35C14.2606 1.90312 14.668 2.55072 14.9241 3.25369C15.1803 3.95665 15.2799 4.7004 15.217 5.44V10.85ZM7.927 13.38C8.56035 13.3715 9.18789 13.2667 9.7846 13.07C10.4424 12.859 11.0276 12.4897 11.4802 12C11.759 11.7121 11.9656 11.3706 12.085 11C12.2093 10.5289 12.2674 10.0449 12.2578 9.56001V8.86C11.7129 8.73908 11.1613 8.64561 10.6054 8.58C10.0466 8.51382 9.48392 8.48042 8.9206 8.48C7.97482 8.41433 7.0333 8.6508 6.253 9.15C5.97117 9.38022 5.74834 9.66575 5.60075 9.98578C5.45315 10.3058 5.3845 10.6523 5.3998 11C5.37427 11.3195 5.41954 11.6404 5.53283 11.943C5.64612 12.2457 5.82504 12.5237 6.0586 12.76C6.31078 12.9719 6.60558 13.1358 6.92617 13.2422C7.24676 13.3485 7.58685 13.3954 7.927 13.38ZM22.345 15.18C22.1017 15.2006 21.858 15.1442 21.6538 15.02C21.4626 14.8417 21.3313 14.6159 21.2758 14.37L17.0746 1.51C16.9931 1.29315 16.9387 1.06834 16.9126 0.840004C16.9034 0.784214 16.9086 0.727213 16.9276 0.673599C16.9466 0.619986 16.979 0.571262 17.0221 0.53136C17.0652 0.491457 17.1178 0.461494 17.1757 0.443888C17.2336 0.426282 17.2952 0.421526 17.3554 0.430004H19.1158C19.3627 0.407082 19.6106 0.463583 19.8178 0.590004C19.9965 0.773729 20.1195 0.997998 20.1742 1.24L23.1874 12.24L25.9846 1.24C26.0278 0.997284 26.1525 0.773342 26.341 0.600004C26.5575 0.476315 26.8111 0.420231 27.0646 0.440004H28.5118C28.7653 0.420231 29.0189 0.476315 29.2354 0.600004C29.422 0.777356 29.543 1.00494 29.581 1.25L32.3998 12.39L35.5102 1.25C35.5675 1.0068 35.6944 0.782318 35.8774 0.600004C36.0846 0.473583 36.3325 0.417082 36.5794 0.440004H38.2426C38.3029 0.431526 38.3644 0.436282 38.4223 0.453888C38.4802 0.471494 38.5328 0.501457 38.5759 0.54136C38.619 0.581262 38.6514 0.629986 38.6704 0.683599C38.6894 0.737213 38.6946 0.794214 38.6854 0.850004C38.6944 0.936472 38.6944 1.02354 38.6854 1.11C38.6509 1.2489 38.6076 1.3858 38.5558 1.52L34.2358 14.38C34.1803 14.6259 34.049 14.8517 33.8578 15.03C33.6536 15.1542 33.4099 15.2106 33.1666 15.19H31.5898C31.3344 15.2148 31.0779 15.1545 30.8662 15.02C30.6809 14.8339 30.5605 14.6004 30.5206 14.35L27.7234 3.64L24.9586 14.34C24.9187 14.5904 24.7983 14.8239 24.613 15.01C24.4013 15.1445 24.1448 15.2048 23.8894 15.18H22.345ZM45.4138 15.62C44.4833 15.6214 43.5556 15.5241 42.649 15.33C41.9279 15.1956 41.2302 14.9702 40.5754 14.66C40.3785 14.5828 40.2108 14.4532 40.0935 14.2876C39.9762 14.1221 39.9146 13.928 39.9166 13.73V12.89C39.9166 12.5433 40.0534 12.37 40.327 12.37C40.4416 12.3716 40.5549 12.3919 40.6618 12.43L41.1154 12.6C41.7493 12.8597 42.4121 13.0542 43.0918 13.18C43.8025 13.3152 44.5263 13.3822 45.2518 13.38C46.1652 13.4301 47.0752 13.2394 47.8762 12.83C48.1685 12.6692 48.4089 12.4387 48.5723 12.1625C48.7356 11.8864 48.816 11.5747 48.805 11.26C48.8112 11.0465 48.7714 10.8339 48.6879 10.6348C48.6045 10.4356 48.4791 10.2538 48.319 10.1C47.7739 9.677 47.1309 9.37589 46.4398 9.22001L43.837 8.46C42.741 8.17803 41.7647 7.59168 41.0398 6.78C40.4609 6.09083 40.1456 5.24311 40.1434 4.37C40.1283 3.72464 40.2959 3.08686 40.6294 2.52C40.9521 1.98678 41.3896 1.5205 41.9146 1.15C42.4651 0.76244 43.0873 0.471012 43.7506 0.290004C44.4842 0.0940008 45.2443 -0.00365839 46.0078 4.30644e-06C46.4122 -0.000325498 46.8162 0.0230546 47.2174 0.0700043C47.6278 0.116671 48.0166 0.180004 48.3838 0.260004C48.751 0.340004 49.093 0.426671 49.4098 0.520004C49.6706 0.595737 49.9236 0.692786 50.1658 0.810004C50.3704 0.912109 50.5504 1.05159 50.695 1.22C50.8092 1.38339 50.8658 1.57556 50.857 1.77V2.56C50.857 2.90667 50.7202 3.08 50.4466 3.08C50.2045 3.05497 49.9698 2.98707 49.7554 2.88C48.6656 2.44167 47.4874 2.22349 46.2994 2.24C45.4731 2.20023 44.65 2.36231 43.9126 2.71C43.6364 2.8594 43.4104 3.07685 43.2597 3.33816C43.1091 3.59947 43.0397 3.89436 43.0594 4.19C43.054 4.40997 43.0983 4.62855 43.1894 4.83174C43.2806 5.03494 43.4165 5.21827 43.5886 5.37C44.1708 5.80115 44.844 6.11455 45.565 6.29L48.1138 7C49.1931 7.25975 50.1613 7.81787 50.8894 8.60001C51.4604 9.28626 51.758 10.134 51.7318 11C51.7413 11.6692 51.5784 12.3308 51.2566 12.93C50.9421 13.5024 50.4961 14.0042 49.9498 14.4C49.3544 14.8258 48.6761 15.1415 47.9518 15.33C47.1253 15.5392 46.2705 15.6368 45.4138 15.62Z" fill="#212931"/>
<path fill-rule="evenodd" clip-rule="evenodd" d="M48.8055 23.81C42.8979 27.85 34.3227 30 27.0003 30C17.1209 30.0602 7.57454 26.6965 0.237873 20.57C-0.312927 20.11 0.173073 19.48 0.842673 19.83C8.98149 24.1408 18.1964 26.4057 27.5727 26.4C34.5748 26.3652 41.5006 25.05 47.9523 22.53C48.9459 22.14 49.7883 23.14 48.8055 23.81Z" fill="#212931"/>
<path fill-rule="evenodd" clip-rule="evenodd" d="M51.2681 21.21C50.5121 20.31 46.2677 20.79 44.3669 21C43.7945 21.06 43.6973 20.6 44.2157 20.26C47.5961 18.06 53.1473 18.69 53.7845 19.43C54.4217 20.17 53.6117 25.32 50.4473 27.78C49.9613 28.16 49.4969 27.96 49.7129 27.46C50.4257 25.8 52.0241 22.11 51.2681 21.21Z" fill="#212931"/>
<path d="M15.217 10.85C15.1999 11.3503 15.2691 11.8499 15.4222 12.33C15.58 12.7412 15.7751 13.1393 16.0054 13.52C16.0839 13.6339 16.1286 13.765 16.135 13.9C16.1236 14.0012 16.0863 14.0985 16.0262 14.1837C15.9661 14.2689 15.8849 14.3397 15.7894 14.39L14.7094 15.09C14.5697 15.1809 14.4048 15.2329 14.2342 15.24C14.1338 15.2367 14.0352 15.2146 13.9442 15.1751C13.8533 15.1355 13.7719 15.0794 13.705 15.01C13.4541 14.7802 13.2364 14.5214 13.057 14.24C12.877 13.96 12.6934 13.6267 12.5062 13.24C11.8737 13.971 11.0689 14.5582 10.1536 14.9569C9.23819 15.3555 8.23645 15.555 7.225 15.54C6.57183 15.5731 5.9181 15.4849 5.30231 15.2806C4.68651 15.0762 4.12111 14.7598 3.6394 14.35C3.19315 13.9297 2.84571 13.4284 2.61895 12.8777C2.39219 12.3269 2.29102 11.7387 2.3218 11.15C2.29318 10.5102 2.41998 9.87251 2.69288 9.28407C2.96578 8.69564 3.37781 8.1714 3.8986 7.75C5.14912 6.83817 6.71566 6.37956 8.305 6.46C8.94112 6.46172 9.57631 6.50516 10.2058 6.59C10.8682 6.67667 11.5558 6.79667 12.2686 6.95V5.73C12.3735 4.77391 12.0669 3.8181 11.4154 3.07C10.5819 2.47652 9.53462 2.201 8.4886 2.3C7.83713 2.30306 7.18829 2.3769 6.5554 2.52C5.89677 2.66583 5.25063 2.85635 4.6222 3.09C4.41905 3.17645 4.20977 3.24995 3.9958 3.31H3.715C3.463 3.31 3.337 3.13667 3.337 2.79V2C3.32156 1.7993 3.36642 1.59856 3.4666 1.42C3.60197 1.26629 3.77637 1.14604 3.9742 1.07C4.69701 0.749381 5.45335 0.498073 6.2314 0.320004C7.14514 0.10277 8.08524 -0.00477814 9.0286 4.30644e-06C10.7254 -0.139235 12.4131 0.345748 13.7266 1.35C14.2606 1.90312 14.668 2.55072 14.9241 3.25369C15.1803 3.95665 15.2799 4.7004 15.217 5.44V10.85ZM7.927 13.38C8.56035 13.3715 9.18789 13.2667 9.7846 13.07C10.4424 12.859 11.0276 12.4897 11.4802 12C11.759 11.7121 11.9656 11.3706 12.085 11C12.2093 10.5289 12.2674 10.0449 12.2578 9.56001V8.86C11.7129 8.73908 11.1613 8.64561 10.6054 8.58C10.0466 8.51382 9.48392 8.48042 8.9206 8.48C7.97482 8.41433 7.0333 8.6508 6.253 9.15C5.97117 9.38022 5.74834 9.66575 5.60075 9.98578C5.45315 10.3058 5.3845 10.6523 5.3998 11C5.37427 11.3195 5.41954 11.6404 5.53283 11.943C5.64612 12.2457 5.82504 12.5237 6.0586 12.76C6.31078 12.9719 6.60558 13.1358 6.92617 13.2422C7.24676 13.3485 7.58685 13.3954 7.927 13.38ZM22.345 15.18C22.1017 15.2006 21.858 15.1442 21.6538 15.02C21.4626 14.8417 21.3313 14.6159 21.2758 14.37L17.0746 1.51C16.9931 1.29315 16.9387 1.06834 16.9126 0.840004C16.9034 0.784214 16.9086 0.727213 16.9276 0.673599C16.9466 0.619986 16.979 0.571262 17.0221 0.53136C17.0652 0.491457 17.1178 0.461494 17.1757 0.443888C17.2336 0.426282 17.2952 0.421526 17.3554 0.430004H19.1158C19.3627 0.407082 19.6106 0.463583 19.8178 0.590004C19.9965 0.773729 20.1195 0.997998 20.1742 1.24L23.1874 12.24L25.9846 1.24C26.0278 0.997284 26.1525 0.773342 26.341 0.600004C26.5575 0.476315 26.8111 0.420231 27.0646 0.440004H28.5118C28.7653 0.420231 29.0189 0.476315 29.2354 0.600004C29.422 0.777356 29.543 1.00494 29.581 1.25L32.3998 12.39L35.5102 1.25C35.5675 1.0068 35.6944 0.782318 35.8774 0.600004C36.0846 0.473583 36.3325 0.417082 36.5794 0.440004H38.2426C38.3029 0.431526 38.3644 0.436282 38.4223 0.453888C38.4802 0.471494 38.5328 0.501457 38.5759 0.54136C38.619 0.581262 38.6514 0.629986 38.6704 0.683599C38.6894 0.737213 38.6946 0.794214 38.6854 0.850004C38.6944 0.936472 38.6944 1.02354 38.6854 1.11C38.6509 1.2489 38.6076 1.3858 38.5558 1.52L34.2358 14.38C34.1803 14.6259 34.049 14.8517 33.8578 15.03C33.6536 15.1542 33.4099 15.2106 33.1666 15.19H31.5898C31.3344 15.2148 31.0779 15.1545 30.8662 15.02C30.6809 14.8339 30.5605 14.6004 30.5206 14.35L27.7234 3.64L24.9586 14.34C24.9187 14.5904 24.7983 14.8239 24.613 15.01C24.4013 15.1445 24.1448 15.2048 23.8894 15.18H22.345ZM45.4138 15.62C44.4833 15.6214 43.5556 15.5241 42.649 15.33C41.9279 15.1956 41.2302 14.9702 40.5754 14.66C40.3785 14.5828 40.2108 14.4532 40.0935 14.2876C39.9762 14.1221 39.9146 13.928 39.9166 13.73V12.89C39.9166 12.5433 40.0534 12.37 40.327 12.37C40.4416 12.3716 40.5549 12.3919 40.6618 12.43L41.1154 12.6C41.7493 12.8597 42.4121 13.0542 43.0918 13.18C43.8025 13.3152 44.5263 13.3822 45.2518 13.38C46.1652 13.4301 47.0752 13.2394 47.8762 12.83C48.1685 12.6692 48.4089 12.4387 48.5723 12.1625C48.7356 11.8864 48.816 11.5747 48.805 11.26C48.8112 11.0465 48.7714 10.8339 48.6879 10.6348C48.6045 10.4356 48.4791 10.2538 48.319 10.1C47.7739 9.677 47.1309 9.37589 46.4398 9.22001L43.837 8.46C42.741 8.17803 41.7647 7.59168 41.0398 6.78C40.4609 6.09083 40.1456 5.24311 40.1434 4.37C40.1283 3.72464 40.2959 3.08686 40.6294 2.52C40.9521 1.98678 41.3896 1.5205 41.9146 1.15C42.4651 0.76244 43.0873 0.471012 43.7506 0.290004C44.4842 0.0940008 45.2443 -0.00365839 46.0078 4.30644e-06C46.4122 -0.000325498 46.8162 0.0230546 47.2174 0.0700043C47.6278 0.116671 48.0166 0.180004 48.3838 0.260004C48.751 0.340004 49.093 0.426671 49.4098 0.520004C49.6706 0.595737 49.9236 0.692786 50.1658 0.810004C50.3704 0.912109 50.5504 1.05159 50.695 1.22C50.8092 1.38339 50.8658 1.57556 50.857 1.77V2.56C50.857 2.90667 50.7202 3.08 50.4466 3.08C50.2045 3.05497 49.9698 2.98707 49.7554 2.88C48.6656 2.44167 47.4874 2.22349 46.2994 2.24C45.4731 2.20023 44.65 2.36231 43.9126 2.71C43.6364 2.8594 43.4104 3.07685 43.2597 3.33816C43.1091 3.59947 43.0397 3.89436 43.0594 4.19C43.054 4.40997 43.0983 4.62855 43.1894 4.83174C43.2806 5.03494 43.4165 5.21827 43.5886 5.37C44.1708 5.80115 44.844 6.11455 45.565 6.29L48.1138 7C49.1931 7.25975 50.1613 7.81787 50.8894 8.60001C51.4604 9.28626 51.758 10.134 51.7318 11C51.7413 11.6692 51.5784 12.3308 51.2566 12.93C50.9421 13.5024 50.4961 14.0042 49.9498 14.4C49.3544 14.8258 48.6761 15.1415 47.9518 15.33C47.1253 15.5392 46.2705 15.6368 45.4138 15.62Z" fill="#212931"/>
<path fill-rule="evenodd" clip-rule="evenodd" d="M48.8055 23.81C42.8979 27.85 34.3227 30 27.0003 30C17.1209 30.0602 7.57454 26.6965 0.237873 20.57C-0.312927 20.11 0.173073 19.48 0.842673 19.83C8.98149 24.1408 18.1964 26.4057 27.5727 26.4C34.5748 26.3652 41.5006 25.05 47.9523 22.53C48.9459 22.14 49.7883 23.14 48.8055 23.81Z" fill="#212931"/>
<path fill-rule="evenodd" clip-rule="evenodd" d="M51.2681 21.21C50.5121 20.31 46.2677 20.79 44.3669 21C43.7945 21.06 43.6973 20.6 44.2157 20.26C47.5961 18.06 53.1473 18.69 53.7845 19.43C54.4217 20.17 53.6117 25.32 50.4473 27.78C49.9613 28.16 49.4969 27.96 49.7129 27.46C50.4257 25.8 52.0241 22.11 51.2681 21.21Z" fill="#212931"/>
</g>
<defs>
<clipPath id="clip0_401_76">
<rect width="54" height="30" fill="white"/>
</clipPath>
</defs>
</svg>
