<svg width="54" height="70" viewBox="0 0 54 70" fill="none" xmlns="http://www.w3.org/2000/svg">
<path d="M53.948 6.12545C53.948 7.74983 51.1166 9.30768 46.0767 10.4563C41.0367 11.6049 34.2011 12.2502 27.0736 12.2502C19.9461 12.2502 13.1105 11.6049 8.07054 10.4563C3.03062 9.30768 0.199219 7.74983 0.199219 6.12545C0.199219 4.50108 3.03062 2.94323 8.07054 1.79462C13.1105 0.646013 19.9461 0.000732422 27.0736 0.000732422C34.2011 0.000732422 41.0367 0.646013 46.0767 1.79462C51.1166 2.94323 53.948 4.50108 53.948 6.12545Z" fill="#212931"/>
<path d="M0.219727 10.724C0.219727 10.724 0.478364 12.2682 6.05507 13.8904C7.57409 14.3323 10.526 14.9014 12.8137 15.2466C16.4575 15.7963 21.0336 16.1436 26.7518 16.1463C29.7577 16.1478 32.5156 16.0852 35.1389 15.8815C38.8306 15.5948 39.4586 15.4873 42.3891 15.0755C45.1909 14.6817 47.8817 13.9996 49.8537 13.3276C53.2592 12.1673 53.9929 10.724 53.9929 10.724V22.8991C53.9929 22.8991 51.508 25.66 44.7093 26.7704C42.3229 27.1601 41.3766 27.5297 37.0273 27.9028C33.2488 28.2269 28.274 28.3819 26.7143 28.3825C25.1542 28.383 21.2375 28.3948 14.8531 27.5575C10.9842 27.05 7.24625 26.3668 5.37779 25.7291C1.62299 24.4467 0.220216 22.899 0.220216 22.899L0.219727 10.724Z" fill="#212931"/>
<path d="M0.145508 26.7687C0.145508 26.7687 0.404145 28.3129 5.98085 29.9351C7.49987 30.3769 10.4518 30.9461 12.7395 31.2913C16.3833 31.841 20.9594 32.1882 26.6775 32.191C29.6835 32.1924 32.4413 32.1299 35.0647 31.9262C38.7564 31.6395 39.3844 31.532 42.3149 31.1202C45.1167 30.7264 47.8074 30.0443 49.7795 29.3723C53.185 28.212 53.9187 26.7687 53.9187 26.7687V38.9438C53.9187 38.9438 51.4338 41.7047 44.6351 42.8151C42.2487 43.2048 41.3024 43.5744 36.9531 43.9474C33.1746 44.2716 28.1997 44.4266 26.6401 44.4271C25.08 44.4277 21.1633 44.4395 14.7789 43.6022C10.9099 43.0954 7.17179 42.4122 5.30357 41.7745C1.54885 40.4921 0.145997 38.9444 0.145997 38.9444L0.145508 26.7687Z" fill="#212931"/>
<path d="M0 43.2418C0 43.2418 0.258637 44.786 5.83534 46.4082C7.35436 46.8501 10.3063 47.4192 12.594 47.7644C16.2378 48.3142 20.8139 48.6614 26.532 48.6641C29.538 48.6656 32.2958 48.6031 34.9192 48.3993C38.6109 48.1126 39.2389 48.0052 42.1694 47.5933C44.9712 47.1995 47.6619 46.5174 49.634 45.8455C53.0395 44.6851 53.7732 43.2418 53.7732 43.2418V55.4169C53.7732 55.4169 51.2883 58.1779 44.4896 59.2882C42.1032 59.6779 41.1569 60.0476 36.8076 60.4206C33.0291 60.7447 28.0542 60.8997 26.4946 60.9003C24.9345 60.9008 21.0177 60.9127 14.6333 60.0753C10.7653 59.5671 7.02718 58.8846 5.15888 58.2462C1.40416 56.9638 0.00130514 55.4161 0.00130514 55.4161L0 43.2418Z" fill="#212931"/>
</svg>
