<svg width="54" height="54" viewBox="0 0 54 54" fill="none" xmlns="http://www.w3.org/2000/svg">
<g clip-path="url(#clip0_401_73)">
<path d="M51.7052 2.24593C52.9747 3.46655 53.8047 5.07776 54 6.83544C54 7.5678 53.8047 8.05608 53.3653 8.98374C52.9259 9.9114 47.5063 19.2857 45.8951 21.8734C44.9675 23.387 44.4792 25.1935 44.4792 26.9512C44.4792 28.7577 44.9675 30.5154 45.8951 32.029C47.5063 34.6166 52.9259 44.0398 53.3653 44.9675C53.8047 45.8951 54 46.3345 54 47.0669C53.8047 48.8246 53.0235 50.4358 51.7541 51.6076C50.5334 52.877 48.9223 53.7071 47.2134 53.8535C46.481 53.8535 45.9928 53.6582 45.1139 53.2188C44.2351 52.7794 34.6655 47.5063 32.0777 45.8951C31.8824 45.7975 31.6871 45.651 31.4431 45.5533L18.651 37.9855C18.9439 40.4267 20.0181 42.7703 21.7757 44.4792C22.1176 44.821 22.4593 45.1139 22.8499 45.4069C22.5569 45.5533 22.2152 45.6998 21.9223 45.8951C19.3345 47.5063 9.9114 52.9259 8.98374 53.3653C8.05608 53.8047 7.61664 54 6.83544 54C5.07776 53.8047 3.46655 53.0235 2.29475 51.7541C1.02532 50.5334 0.195298 48.9223 0 47.1646C0.0488246 46.4322 0.244123 45.6998 0.634722 45.0651C1.07414 44.1374 6.49368 34.7143 8.10486 32.1266C9.03258 30.613 9.5208 28.8553 9.5208 27.0488C9.5208 25.2423 9.03258 23.4846 8.10486 21.971C6.49368 19.2857 1.02532 9.86256 0.634722 8.9349C0.244123 8.30016 0.0488246 7.5678 0 6.83544C0.195298 5.07776 0.976494 3.46655 2.24593 2.24593C3.46655 0.976494 5.07776 0.195298 6.83544 0C7.5678 0.0488246 8.30016 0.244123 8.98374 0.634722C9.76494 0.976494 16.6492 4.98011 20.311 7.12842L21.1411 7.61664C21.434 7.81194 21.6781 7.9584 21.8734 8.05608L22.264 8.30016L35.3002 16.0145C35.0072 13.085 33.4937 10.3996 31.1501 8.59314C31.4431 8.44668 31.7848 8.30016 32.0777 8.10486C34.6655 6.49368 44.0886 1.02532 45.0163 0.634722C45.651 0.244123 46.3834 0.0488246 47.1646 0C48.8734 0.195298 50.4847 0.976494 51.7052 2.24593ZM27.6835 30.4666L30.4666 27.6835C30.8572 27.2929 30.8572 26.7071 30.4666 26.3165L27.6835 23.5334C27.2929 23.1428 26.7071 23.1428 26.3165 23.5334L23.5334 26.3165C23.1428 26.7071 23.1428 27.2929 23.5334 27.6835L26.3165 30.4666C26.6582 30.8083 27.2929 30.8083 27.6835 30.4666Z" fill="#212931"/>
</g>
<defs>
<clipPath id="clip0_401_73">
<rect width="54" height="54" fill="white"/>
</clipPath>
</defs>
</svg>
