<svg width="54" height="54" viewBox="0 0 54 54" fill="none" xmlns="http://www.w3.org/2000/svg">
<g clip-path="url(#clip0_401_80)">
<path d="M29.5226 24.9223H23.9454V18.6574H29.5226V24.9223ZM29.5226 3.375H23.9454V9.77695H29.5226V3.375ZM36.1207 18.6469H30.5435V24.9117H36.1207V18.6469ZM22.9329 11.0426H17.3557V17.3813H22.9329V11.0426ZM29.5226 11.0426H23.9454V17.3813H29.5226V11.0426ZM52.8776 21.5895C51.6626 20.5664 48.8613 20.1973 46.7098 20.7035C46.4313 18.1723 45.3007 15.968 43.242 13.9852L42.0607 13.0043L41.276 14.4809C39.7235 17.4129 39.3016 22.2434 40.9638 25.4285C40.2298 25.9242 38.787 26.5992 36.8801 26.557H0.202272C-0.531791 31.9148 0.691647 38.8758 3.91477 43.6535C7.04508 48.2836 11.7363 50.6355 17.8704 50.6355C31.151 50.6355 40.9807 42.9891 45.5791 29.0988C47.3848 29.141 51.2829 29.1094 53.2826 24.3316C53.4091 24.068 53.8395 22.9395 53.9998 22.5281L52.8776 21.5895ZM9.75352 18.6469H4.18477V24.9117H9.76196V18.6469H9.75352ZM16.3432 18.6469H10.766V24.9117H16.3432V18.6469ZM22.9329 18.6469H17.3557V24.9117H22.9329V18.6469ZM16.3432 11.0426H10.766V17.3813H16.3432V11.0426Z" fill="#212931"/>
</g>
<defs>
<clipPath id="clip0_401_80">
<rect width="54" height="54" fill="white"/>
</clipPath>
</defs>
</svg>
