<svg width="54" height="43" viewBox="0 0 54 43" fill="none" xmlns="http://www.w3.org/2000/svg">
<path d="M33.9093 11.8299H35.5391L40.1838 7.18526L40.4064 5.21253C37.7453 2.86809 34.5309 1.24015 31.0662 0.48228C27.6016 -0.275593 24.0011 -0.138423 20.6042 0.880849C17.2073 1.90012 14.126 3.7679 11.651 6.30801C9.17595 8.84812 7.38877 11.9768 6.45801 15.3991C6.97573 15.1877 7.54894 15.154 8.08785 15.3033L17.3771 13.7692C17.3771 13.7692 17.8513 12.9877 18.094 13.0367C20.085 10.8507 22.8361 9.5082 25.7843 9.28387C28.7325 9.05953 31.655 9.97032 33.9538 11.8299H33.9093Z" fill="#212931"/>
<path d="M46.8017 15.399C45.7331 11.4699 43.5408 7.93815 40.4939 5.237L33.9745 11.7564C35.3338 12.8659 36.4232 14.2698 37.1603 15.8621C37.8974 17.4543 38.263 19.1933 38.2295 20.9476V22.1054C39.7684 22.1054 41.2442 22.7168 42.3324 23.8049C43.4206 24.8931 44.0319 26.369 44.0319 27.9079C44.0319 29.4468 43.4206 30.9226 42.3324 32.0108C41.2442 33.099 39.7684 33.7103 38.2295 33.7103H26.6246L25.4668 34.8837V41.8439L26.6246 42.9995H38.2295C41.4703 43.0253 44.6334 42.007 47.2506 40.0955C49.8678 38.184 51.8001 35.4807 52.7616 32.3856C53.7231 29.2906 53.6627 25.9682 52.5893 22.9102C51.516 19.8521 49.4867 17.2209 46.8017 15.4057V15.399Z" fill="#212931"/>
<path d="M15.0034 42.9282H26.6082V33.639H15.0034C14.1766 33.6377 13.3597 33.4593 12.6076 33.1158L10.9778 33.6212L6.30199 38.2658L5.89453 39.8957C8.51708 41.8762 11.717 42.9416 15.0034 42.9282Z" fill="#212931"/>
<path d="M15.0033 12.7918C11.8589 12.8102 8.79878 13.8104 6.25043 15.6525C3.70209 17.4946 1.79278 20.0867 0.789234 23.0667C-0.214315 26.0467 -0.261982 29.2657 0.652891 32.2741C1.56776 35.2825 3.39948 37.93 5.89216 39.8468L12.6231 33.1159C11.7675 32.7295 11.0184 32.1412 10.4402 31.4016C9.86202 30.662 9.47191 29.7931 9.30336 28.8695C9.13482 27.946 9.19289 26.9953 9.47259 26.0992C9.75228 25.203 10.2452 24.3881 10.9092 23.7243C11.5731 23.0606 12.3882 22.5679 13.2844 22.2884C14.1807 22.009 15.1314 21.9512 16.0549 22.12C16.9784 22.2888 17.8471 22.6792 18.5866 23.2576C19.326 23.836 19.9141 24.5852 20.3003 25.4409L27.0311 18.7078C25.618 16.8613 23.797 15.3665 21.7105 14.3403C19.624 13.314 17.3285 12.7841 15.0033 12.7918Z" fill="#212931"/>
</svg>
