<svg width="50" height="50" viewBox="0 0 50 50" fill="none" xmlns="http://www.w3.org/2000/svg">
<path d="M49.0568 22.7726L27.2264 0.943072C25.9698 -0.314436 23.9307 -0.314436 22.6724 0.943072L18.1397 5.47663L23.8897 11.2269C25.2263 10.7756 26.7588 11.0785 27.8237 12.1436C28.895 13.2153 29.1951 14.761 28.7323 16.1022L34.2747 21.644C35.6159 21.1816 37.1623 21.4805 38.2336 22.5533C39.7299 24.0492 39.7299 26.4743 38.2336 27.9715C36.7361 29.4687 34.3115 29.4687 32.8134 27.9715C31.6879 26.8449 31.4095 25.1911 31.9802 23.8043L26.8109 18.6355V32.2373C27.1754 32.4179 27.5197 32.6585 27.8237 32.9616C29.3201 34.4578 29.3201 36.8826 27.8237 38.3812C26.3273 39.8769 23.901 39.8769 22.4057 38.3812C20.9093 36.8826 20.9093 34.4578 22.4057 32.9616C22.7755 32.5922 23.2038 32.3127 23.6608 32.1257V18.398C23.2038 18.211 22.7765 17.9338 22.4057 17.5619C21.2723 16.4289 20.9996 14.7653 21.581 13.3732L15.9121 7.70358L0.942945 22.6715C-0.314315 23.93 -0.314315 25.969 0.942945 27.2265L22.7744 49.0561C24.0313 50.3133 26.0697 50.3133 27.3284 49.0561L49.0568 27.3277C50.3145 26.07 50.3145 24.0299 49.0568 22.7726" fill="#212931"/>
</svg>
