<svg width="54" height="54" viewBox="0 0 54 54" fill="none" xmlns="http://www.w3.org/2000/svg">
<path d="M12.1166 13.806C12.1166 15.6218 10.6676 17.0933 8.8811 17.0933C7.0946 17.0933 5.6456 15.6218 5.6456 13.806C5.6456 11.9903 7.0946 10.5188 8.8811 10.5188C10.6676 10.5188 12.1166 11.9903 12.1166 13.806ZM8.8811 19.7235C7.0946 19.7235 5.6456 21.195 5.6456 23.0108C5.6456 24.8265 7.0946 26.298 8.8811 26.298C10.6676 26.298 12.1166 24.8265 12.1166 23.0108C12.1166 21.195 10.6676 19.7235 8.8811 19.7235ZM21.1774 13.806C21.1774 15.6218 19.7284 17.0933 17.9419 17.0933C16.1554 17.0933 14.7064 15.6218 14.7064 13.806C14.7064 11.9903 16.1554 10.5188 17.9419 10.5188C19.7284 10.5188 21.1774 11.9903 21.1774 13.806ZM20.3899 13.806C20.3899 12.4268 19.2919 11.3063 17.9419 11.3063C16.5919 11.3063 15.4939 12.429 15.4939 13.806C15.4939 15.183 16.5919 16.3058 17.9419 16.3058C19.2919 16.3058 20.3899 15.1853 20.3899 13.806ZM17.9419 26.388C19.7284 26.388 21.1774 24.9165 21.1774 23.1008C21.1774 21.285 19.7284 19.8135 17.9419 19.8135C16.1554 19.8135 14.7064 21.285 14.7064 23.1008C14.7064 24.9165 16.1531 26.388 17.9419 26.388ZM30.2359 13.806C30.2359 15.6218 28.7869 17.0933 27.0004 17.0933C25.2139 17.0933 23.7649 15.6218 23.7649 13.806C23.7649 11.9903 25.2139 10.5188 27.0004 10.5188C28.7869 10.5188 30.2359 11.9903 30.2359 13.806ZM29.4484 13.806C29.4484 12.4268 28.3504 11.3063 27.0004 11.3063C25.6504 11.3063 24.5524 12.4268 24.5524 13.806C24.5524 15.1853 25.6504 16.3058 27.0004 16.3058C28.3504 16.3058 29.4484 15.1853 29.4484 13.806ZM30.2359 3.28725C30.2359 5.103 28.7869 6.5745 27.0004 6.5745C25.2139 6.5745 23.7649 5.103 23.7649 3.28725C23.7649 1.4715 25.2139 0 27.0004 0C28.7869 0 30.2359 1.4715 30.2359 3.28725ZM29.4484 3.28725C29.4484 1.908 28.3504 0.7875 27.0004 0.7875C25.6504 0.7875 24.5524 1.908 24.5524 3.28725C24.5524 4.6665 25.6504 5.787 27.0004 5.787C28.3504 5.787 29.4484 4.6665 29.4484 3.28725ZM30.2359 23.1008C30.2359 24.9165 28.7869 26.388 27.0004 26.388C25.2139 26.388 23.7649 24.9165 23.7649 23.1008C23.7649 21.285 25.2139 19.8135 27.0004 19.8135C28.7869 19.8135 30.2359 21.285 30.2359 23.1008ZM29.4484 23.1008C29.4484 21.7215 28.3504 20.601 27.0004 20.601C25.6504 20.601 24.5524 21.7215 24.5524 23.1008C24.5524 24.48 25.6504 25.6005 27.0004 25.6005C28.3504 25.6005 29.4484 24.4778 29.4484 23.1008ZM39.2944 13.806C39.2944 15.6218 37.8454 17.0933 36.0589 17.0933C34.2724 17.0933 32.8234 15.6218 32.8234 13.806C32.8234 11.9903 34.2724 10.5188 36.0589 10.5188C37.8454 10.5188 39.2944 11.9903 39.2944 13.806ZM38.5069 13.806C38.5069 12.4268 37.4089 11.3063 36.0589 11.3063C34.7089 11.3063 33.6109 12.4268 33.6109 13.806C33.6109 15.1853 34.7089 16.3058 36.0589 16.3058C37.4089 16.3058 38.5069 15.1853 38.5069 13.806ZM45.1196 17.0933C46.9061 17.0933 48.3551 15.6218 48.3551 13.806C48.3551 11.9903 46.9061 10.5188 45.1196 10.5188C43.3331 10.5188 41.8841 11.9903 41.8841 13.806C41.8841 15.6218 43.3331 17.0933 45.1196 17.0933ZM36.0589 19.8135C34.2724 19.8135 32.8234 21.285 32.8234 23.1008C32.8234 24.9165 34.2724 26.388 36.0589 26.388C37.8454 26.388 39.2944 24.9165 39.2944 23.1008C39.2944 21.285 37.8476 19.8135 36.0589 19.8135ZM45.1196 19.8135C43.3331 19.8135 41.8841 21.285 41.8841 23.1008C41.8841 24.9165 43.3331 26.388 45.1196 26.388C46.9061 26.388 48.3551 24.9165 48.3551 23.1008C48.3551 21.285 46.9061 19.8135 45.1196 19.8135ZM8.8811 28.9283C8.01622 28.9354 7.18956 29.2857 6.58284 29.9021C5.97613 30.5185 5.63901 31.3506 5.6456 32.2155C5.6456 34.0312 7.0946 35.5028 8.8811 35.5028C10.6676 35.5028 12.1166 34.0312 12.1166 32.2155C12.1232 31.3506 11.7861 30.5185 11.1794 29.9021C10.5726 29.2857 9.74599 28.9354 8.8811 28.9283ZM21.1774 32.3033C21.1774 34.119 19.7284 35.5905 17.9419 35.5905C16.1554 35.5905 14.7064 34.119 14.7064 32.3033C14.7064 30.4875 16.1554 29.016 17.9419 29.016C19.7284 29.016 21.1774 30.4898 21.1774 32.3033ZM20.3899 32.3033C20.3899 30.924 19.2919 29.8035 17.9419 29.8035C16.5919 29.8035 15.4939 30.924 15.4939 32.3033C15.4939 33.6825 16.5919 34.803 17.9419 34.803C19.2919 34.803 20.3899 33.6825 20.3899 32.3033ZM27.0004 29.016C25.2139 29.016 23.7649 30.4875 23.7649 32.3033C23.7649 34.119 25.2139 35.5905 27.0004 35.5905C28.7869 35.5905 30.2359 34.119 30.2359 32.3033C30.2359 30.4875 28.7869 29.016 27.0004 29.016ZM39.2944 32.3033C39.2944 34.119 37.8454 35.5905 36.0589 35.5905C34.2724 35.5905 32.8234 34.119 32.8234 32.3033C32.8234 30.4875 34.2724 29.016 36.0589 29.016C37.8454 29.016 39.2944 30.4898 39.2944 32.3033ZM38.5069 32.3033C38.5069 30.924 37.4089 29.8035 36.0589 29.8035C34.7089 29.8035 33.6109 30.924 33.6109 32.3033C33.6109 33.6825 34.7089 34.803 36.0589 34.803C37.4089 34.803 38.5069 33.6825 38.5069 32.3033ZM45.1196 29.016C43.3331 29.016 41.8841 30.4875 41.8841 32.3033C41.8841 34.119 43.3331 35.5905 45.1196 35.5905C46.9061 35.5905 48.3551 34.119 48.3551 32.3033C48.3551 30.4875 46.9061 29.016 45.1196 29.016ZM8.8811 38.133C7.0946 38.133 5.6456 39.6045 5.6456 41.4203C5.6456 43.236 7.0946 44.7075 8.8811 44.7075C10.6676 44.7075 12.1166 43.236 12.1166 41.4203C12.1166 39.6045 10.6676 38.133 8.8811 38.133ZM21.1774 41.508C21.1774 43.3237 19.7284 44.7953 17.9419 44.7953C16.1554 44.7953 14.7064 43.3237 14.7064 41.508C14.7064 39.6922 16.1554 38.2207 17.9419 38.2207C19.7284 38.2207 21.1774 39.6922 21.1774 41.508ZM20.3899 41.508C20.3899 40.1287 19.2919 39.0082 17.9419 39.0082C16.5919 39.0082 15.4939 40.1287 15.4939 41.508C15.4939 42.8872 16.5919 44.0078 17.9419 44.0078C19.2919 44.0078 20.3899 42.8872 20.3899 41.508ZM30.2359 41.508C30.2359 43.3237 28.7869 44.7953 27.0004 44.7953C25.2139 44.7953 23.7649 43.3237 23.7649 41.508C23.7649 39.6922 25.2139 38.2207 27.0004 38.2207C28.7869 38.2207 30.2359 39.6922 30.2359 41.508ZM29.4484 41.508C29.4484 40.1287 28.3504 39.0082 27.0004 39.0082C25.6504 39.0082 24.5524 40.1287 24.5524 41.508C24.5524 42.8872 25.6504 44.0078 27.0004 44.0078C28.3504 44.0078 29.4484 42.8872 29.4484 41.508ZM30.2359 50.7127C30.2359 52.5285 28.7869 54 27.0004 54C25.2139 54 23.7649 52.5285 23.7649 50.7127C23.7649 48.897 25.2139 47.4255 27.0004 47.4255C28.7869 47.4255 30.2359 48.897 30.2359 50.7127ZM29.4484 50.7127C29.4484 49.3335 28.3504 48.213 27.0004 48.213C25.6504 48.213 24.5524 49.3335 24.5524 50.7127C24.5524 52.092 25.6504 53.2125 27.0004 53.2125C28.3504 53.2125 29.4484 52.092 29.4484 50.7127ZM39.2944 41.508C39.2944 43.3237 37.8454 44.7953 36.0589 44.7953C34.2724 44.7953 32.8234 43.3237 32.8234 41.508C32.8234 39.6922 34.2724 38.2207 36.0589 38.2207C37.8454 38.2207 39.2944 39.6922 39.2944 41.508ZM38.5069 41.508C38.5069 40.1287 37.4089 39.0082 36.0589 39.0082C34.7089 39.0082 33.6109 40.1287 33.6109 41.508C33.6109 42.8872 34.7089 44.0078 36.0589 44.0078C37.4089 44.0078 38.5069 42.8872 38.5069 41.508ZM45.1196 38.2207C43.3331 38.2207 41.8841 39.6922 41.8841 41.508C41.8841 43.3237 43.3331 44.7953 45.1196 44.7953C46.9061 44.7953 48.3551 43.3237 48.3551 41.508C48.3551 39.6922 46.9061 38.2207 45.1196 38.2207Z" fill="#212931"/>
</svg>
