<svg width="54" height="54" viewBox="0 0 54 54" fill="none" xmlns="http://www.w3.org/2000/svg">
<path d="M22.5 27C23.0967 27 23.669 27.2371 24.091 27.659C24.5129 28.081 24.75 28.6533 24.75 29.25V54H9C8.40326 54 7.83097 53.7629 7.40901 53.341C6.98705 52.919 6.75 52.3467 6.75 51.75V29.25C6.75 28.6533 6.98705 28.081 7.40901 27.659C7.83097 27.2371 8.40326 27 9 27H22.5ZM18 25.875V15.75C18 15.1533 18.2371 14.581 18.659 14.159C19.081 13.7371 19.6533 13.5 20.25 13.5H33.75C34.3467 13.5 34.919 13.7371 35.341 14.159C35.7629 14.581 36 15.1533 36 15.75V54H25.875V29.25C25.875 28.3549 25.5194 27.4964 24.8865 26.8635C24.2536 26.2306 23.3951 25.875 22.5 25.875H18ZM29.25 12.375V2.25C29.25 1.65326 29.4871 1.08097 29.909 0.65901C30.331 0.237053 30.9033 0 31.5 0L45 0C45.5967 0 46.169 0.237053 46.591 0.65901C47.0129 1.08097 47.25 1.65326 47.25 2.25V51.75C47.25 52.3467 47.0129 52.919 46.591 53.341C46.169 53.7629 45.5967 54 45 54H37.125V15.75C37.125 14.8549 36.7694 13.9964 36.1365 13.3635C35.5035 12.7306 34.6451 12.375 33.75 12.375H29.25Z" fill="#212931"/>
</svg>
