<svg width="32" height="55" viewBox="0 0 32 55" fill="none" xmlns="http://www.w3.org/2000/svg">
<g clip-path="url(#clip0_401_75)">
<path d="M31.5332 25.4944L15.7598 16.9783V34.2893L31.5332 25.4944Z" fill="#2F363D"/>
<path opacity="0.2" d="M17.7688 33.168L15.7598 20.2991V34.2893L17.7688 33.168ZM29.5115 24.3941L15.7598 16.9783V18.8664L29.5115 24.3941Z" fill="#212931"/>
<path d="M0.954999 54.4957C0.987975 54.4748 15.4441 46.9232 15.4567 46.915C15.6546 46.7838 15.7662 46.752 15.773 46.3767L15.7662 16.9783C9.64201 20.2782 1.02095 24.9133 0.276881 25.3396C0.0392865 25.4817 0.00631071 25.6028 0.00631071 25.7868V53.737C0.000391978 54.3682 0.0392865 54.9921 0.954999 54.4957Z" fill="#212931"/>
<path d="M31.5335 8.83737V25.488C31.5335 25.488 2.10635 9.62431 1.08832 9.05687C0.409361 8.67433 0.409361 8.31091 1.08832 7.90105C1.71317 7.52397 13.6538 1.10818 15.4844 0.120851C15.7211 0.00790958 15.7947 0.00790958 16.0044 0.0999021L31.2384 8.32549C31.4557 8.44025 31.5216 8.55319 31.5335 8.83737Z" fill="#212931"/>
</g>
<defs>
<clipPath id="clip0_401_75">
<rect width="31.5333" height="55" fill="white"/>
</clipPath>
</defs>
</svg>
