<svg width="69" height="48" viewBox="0 0 69 48" fill="none" xmlns="http://www.w3.org/2000/svg">
<path fill-rule="evenodd" clip-rule="evenodd" d="M63.1197 24.0375C63.0601 23.8686 63.0332 23.7834 63.0008 23.7017C62.1363 21.5197 61.2738 19.3361 60.4016 17.1595C60.3136 16.9408 60.3245 16.8107 60.4449 16.624C61.8199 14.4914 63.1877 12.3503 64.5571 10.2113C64.6051 10.1363 64.6484 10.0561 64.6669 9.92274C64.2664 10.0617 63.8659 10.1989 63.4659 10.3396C61.8045 10.9241 60.1427 11.5068 58.4828 12.0992C58.3279 12.1544 58.2577 12.0942 58.1808 11.924C57.2374 9.83186 56.2887 7.74417 55.3411 5.65559C55.292 5.54701 55.2393 5.44169 55.1351 5.35052C55.0589 5.90785 54.9813 6.46488 54.9067 7.0225C54.6427 8.991 54.3795 10.9601 54.1164 12.9289C54.0877 13.1413 54.0482 13.3529 54.0346 13.5671C54.0213 13.7703 53.9429 13.8453 53.8044 13.9031C51.8463 14.7192 49.8902 15.5432 47.9341 16.3664C47.8481 16.4024 47.7644 16.449 47.6721 16.5602C49.2724 17.4046 50.8727 18.2489 52.4977 19.1063C52.4386 19.1686 52.4001 19.2166 52.3568 19.254C51.3563 20.1134 50.3543 20.9694 49.3562 21.8333C49.2369 21.9366 49.142 21.9512 49.0078 21.871C47.8128 21.1566 46.6132 20.4556 45.4165 19.746C44.8791 19.4275 44.3958 19.0043 44.0193 18.3931C43.1684 17.011 43.3364 15.4388 44.4702 14.4784C44.8414 14.1642 45.2625 13.9285 45.6827 13.7464C47.6004 12.9171 49.5253 12.1172 51.4494 11.3147C51.6105 11.2478 51.6854 11.1519 51.7154 10.92C51.9717 8.9494 52.2377 6.9809 52.505 5.01329C52.6481 3.96118 52.7241 2.88193 53.1099 1.91774C53.2579 1.54717 53.4355 1.18398 53.6466 0.873303C54.4102 -0.251976 55.4763 -0.295643 56.2838 0.776529C56.5563 1.13825 56.7907 1.56517 56.9932 2.003C57.883 3.92872 58.7582 5.86684 59.6286 7.80819C59.7315 8.03773 59.8244 8.08406 60.0149 8.0162C62.1603 7.25264 64.308 6.50088 66.4556 5.74764C66.8985 5.59245 67.3465 5.53521 67.8012 5.64821C68.791 5.89428 69.2237 6.89475 68.8888 8.16401C68.7364 8.74258 68.4735 9.23087 68.1777 9.69231C66.6792 12.032 65.1831 14.3743 63.6795 16.708C63.5566 16.8986 63.5539 17.0367 63.639 17.2497C64.536 19.4943 65.4251 21.7443 66.3176 23.9922C66.5312 24.5304 66.6941 25.0885 66.6989 25.7064C66.7096 27.1116 65.9356 28.2616 64.8838 28.4663C64.2946 28.5812 63.7473 28.4141 63.1952 28.1877C61.8501 27.6357 60.5025 27.0928 59.1542 26.5545C59.0293 26.5048 58.9815 26.44 58.9595 26.2612C58.8044 25.0015 58.6353 23.7446 58.4717 22.4866C58.467 22.4521 58.4748 22.4147 58.4788 22.3377C60.0138 22.8999 61.5354 23.4572 63.1197 24.0375Z" fill="#212931"/>
<path fill-rule="evenodd" clip-rule="evenodd" d="M60.4957 42.3844C59.2825 42.3815 58.0694 42.3741 56.856 42.3806C56.696 42.3812 56.6051 42.3192 56.5158 42.1383C55.0795 39.2339 53.6367 36.3352 52.1951 33.4352C52.1491 33.3429 52.1002 33.2539 52.0187 33.0986C51.7082 36.2307 51.4049 39.2929 51.1009 42.3628C50.0393 42.3628 48.9988 42.3628 47.9238 42.3628C47.9609 41.9518 47.9936 41.5547 48.0327 41.159C48.343 38.0142 48.6543 34.8694 48.9657 31.7249C49.263 28.7203 49.5595 25.7156 49.8612 22.7115C49.8701 22.6218 49.915 22.5087 49.9701 22.4611C51.0633 21.5148 52.1602 20.5766 53.2572 19.6378C53.2732 19.624 53.2954 19.6223 53.3521 19.601C53.0203 22.9607 52.6909 26.294 52.3616 29.6275C52.3747 29.6393 52.3876 29.6511 52.4007 29.6633C54.1216 27.1305 55.8428 24.5978 57.6009 22.0108C57.6518 22.4002 57.6958 22.7335 57.7389 23.067C57.8622 24.022 57.9805 24.9783 58.1125 25.9313C58.1391 26.1234 58.1007 26.2429 58.0043 26.3764C56.8913 27.9227 55.7826 29.4743 54.673 31.0245C54.6246 31.0921 54.5781 31.1623 54.523 31.2425C54.5583 31.3178 54.5886 31.39 54.6243 31.457C56.5384 35.0237 58.4525 38.5899 60.3681 42.1552C60.4028 42.2198 60.4528 42.2705 60.4957 42.3278C60.4957 42.3466 60.4957 42.3655 60.4957 42.3844Z" fill="#212931"/>
<path fill-rule="evenodd" clip-rule="evenodd" d="M22.8372 33.1125C22.7887 32.7838 22.754 32.3011 22.644 31.8503C22.1121 29.6708 20.4276 28.4757 18.6841 29.0144C16.7715 29.6053 15.4047 31.6016 15.207 34.1926C15.0606 36.1091 15.838 37.9555 17.2834 38.6485C18.4478 39.207 19.569 38.9734 20.6099 38.1446C21.9896 37.0456 22.738 35.414 22.8372 33.1125ZM14.4382 41.2133C14.3438 42.1509 14.2538 43.0346 14.1662 43.9189C14.0499 45.0943 13.9338 46.27 13.8224 47.446C13.8093 47.5832 13.778 47.6437 13.667 47.6428C12.7943 47.6381 11.9216 47.6392 11.049 47.6375C11.0291 47.6375 11.0092 47.623 10.9619 47.6054C11.0147 47.0504 11.066 46.4939 11.1209 45.9378C11.3134 43.9881 11.5055 42.0382 11.7009 40.0889C11.9244 37.86 12.1014 35.6203 12.3875 33.4057C12.8943 29.4842 15.4001 26.1047 18.3406 25.2633C20.0454 24.7751 21.6769 25.001 23.1652 26.2745C24.6495 27.5445 25.5008 29.3876 25.6948 31.706C25.9693 34.9839 25.0606 37.7051 23.3067 39.9561C22.1557 41.434 20.7776 42.3731 19.1881 42.6905C17.5506 43.0184 16.0113 42.6557 14.63 41.3741C14.5793 41.3272 14.5251 41.2862 14.4382 41.2133Z" fill="#212931"/>
<path fill-rule="evenodd" clip-rule="evenodd" d="M13.0164 22.5789C12.0377 23.5462 11.0941 24.4786 10.1465 25.4151C9.99382 25.0952 9.85702 24.7765 9.69728 24.48C9.28615 23.7172 8.77555 23.1473 8.0329 23.0782C7.41525 23.0207 6.887 23.2908 6.46659 23.8954C6.09055 24.4361 6.04141 25.2048 6.3928 25.8154C6.77962 26.4875 7.20299 27.1252 7.6353 27.7474C8.35191 28.7789 9.10099 29.7709 9.81299 30.8079C10.4609 31.7512 10.9773 32.8098 11.1368 34.0996C11.3264 35.633 11.096 37.0935 10.5497 38.4412C9.5386 40.9351 7.94643 42.382 5.84451 42.8349C4.91627 43.0346 3.99052 42.9948 3.08478 42.6408C1.88272 42.171 1.04605 41.1251 0.508008 39.6482C0.317896 39.126 0.17249 38.5751 0 38.0155C1.05239 37.2679 2.07465 36.5414 3.11193 35.8044C3.14813 35.9192 3.1734 36.0147 3.20716 36.1042C3.38399 36.5742 3.52879 37.0734 3.74789 37.5059C4.39759 38.7885 5.44701 39.1788 6.51165 38.5447C6.78509 38.3818 7.04848 38.152 7.2728 37.888C7.95885 37.0795 8.0875 35.954 7.57965 34.9367C7.28789 34.3522 6.92296 33.8282 6.56772 33.3045C5.71873 32.0527 4.83518 30.841 4.00581 29.5666C3.43408 28.6883 3.04562 27.664 2.9227 26.4875C2.78841 25.2031 2.9819 23.991 3.48539 22.9096C4.73709 20.2216 6.55601 18.8233 8.96185 18.9391C10.3334 19.0051 11.4256 19.8566 12.2733 21.2714C12.5242 21.6899 12.7593 22.1251 13.0164 22.5789Z" fill="#212931"/>
<path fill-rule="evenodd" clip-rule="evenodd" d="M36.256 37.0097C36.0964 38.6288 35.9459 40.1678 35.7895 41.7055C35.7815 41.7833 35.7355 41.8892 35.6855 41.9202C33.3174 43.3763 30.199 43.173 28.2543 40.2409C27.2094 38.6657 26.7709 36.796 26.8364 34.716C26.988 29.901 29.995 25.6976 33.591 25.1103C35.6919 24.767 37.5345 25.5204 38.9578 27.6871C39.9272 29.1632 40.3757 30.9259 40.3095 32.8711C40.2659 34.156 40.1141 35.4352 39.9937 36.7143C39.823 38.5258 39.6365 40.335 39.4563 42.1451C39.4499 42.2094 39.4401 42.2731 39.4292 42.3548C38.4916 42.3548 37.5596 42.3548 36.5962 42.3548C36.634 41.9389 36.6684 41.5317 36.7082 41.1255C36.9133 39.0347 37.1389 36.9473 37.3187 34.8529C37.4307 33.5485 37.3602 32.2539 36.9109 31.0457C36.4329 29.7617 35.6315 29.0826 34.5774 28.9341C32.396 28.6276 30.3206 30.6401 29.8552 33.4901C29.5479 35.3715 30.0324 37.1748 31.1609 38.1717C32.2609 39.1434 33.4389 39.1466 34.6377 38.5164C35.2455 38.1972 35.7633 37.6917 36.256 37.0097Z" fill="#212931"/>
<path fill-rule="evenodd" clip-rule="evenodd" d="M48.1849 25.4758C48.0555 26.7799 47.9282 28.0644 47.798 29.3756C47.199 29.3756 46.6117 29.371 46.0245 29.3772C45.5487 29.3822 45.1145 29.7899 44.9716 30.3798C44.9156 30.6105 44.8949 30.8574 44.8709 31.0994C44.5729 34.0937 44.2771 37.0881 43.9813 40.0828C43.9067 40.8378 43.834 41.5934 43.7593 42.3599C42.7766 42.3599 41.8079 42.3599 40.8105 42.3599C40.8657 41.784 40.9177 41.2269 40.9726 40.6704C41.1643 38.7296 41.3561 36.7895 41.5504 34.8496C41.7181 33.1708 41.8677 31.4883 42.0653 29.8157C42.3302 27.5735 44.0105 25.5823 45.7148 25.4839C46.5279 25.437 47.3439 25.4758 48.1849 25.4758Z" fill="#212931"/>
<path d="M63.9727 42.3599V40.7073H63.9656L63.4771 42.3599H63.3214L62.8329 40.7073H62.8256V42.3599H62.5795V40.3805H62.9593L63.4045 41.8842L63.8425 40.3805H64.2189V42.3599H63.9727ZM61.8086 40.6451V42.3599H61.5626V40.6451H61.0957V40.3805H62.2755V40.6451H61.8086Z" fill="#212931"/>
<path d="M16.9659 19.7995H17.697L17.5247 18.3299L16.9659 19.7995ZM17.8118 20.7489H16.5954L16.209 21.7538H15.3477L17.2477 17.0411H18.0781L18.7251 21.7538H17.9266L17.8118 20.7489Z" fill="#212931"/>
<path d="M22.1647 17.9903H21.7313L21.5855 19.0783H22.0185C22.2798 19.0783 22.4887 18.85 22.4887 18.4199C22.4887 18.1357 22.3578 17.9903 22.1647 17.9903ZM21.1154 17.0411H22.2538C22.8489 17.0411 23.2662 17.5123 23.2662 18.3229C23.2662 19.3418 22.7233 20.0277 21.9507 20.0277H21.4601L21.2302 21.7538H20.4893L21.1154 17.0411Z" fill="#212931"/>
<path d="M25.7843 19.7995H26.5154L26.343 18.3299L25.7843 19.7995ZM26.6301 20.7489H25.4138L25.0274 21.7538H24.166L26.0661 17.0411H26.8964L27.5435 21.7538H26.745L26.6301 20.7489Z" fill="#212931"/>
<path d="M31.4389 21.5871C31.1884 21.7395 30.912 21.8301 30.6351 21.8301C29.6957 21.8301 29.1055 20.8942 29.1055 19.7229C29.1055 18.2256 30.0555 16.9643 31.1833 16.9643C31.4651 16.9643 31.7211 17.0543 31.9298 17.2068L31.8254 18.3369C31.6689 18.1079 31.418 17.9486 31.1049 17.9486C30.4577 17.9486 29.8835 18.7251 29.8835 19.6258C29.8835 20.3118 30.2071 20.846 30.7189 20.846C31.0322 20.846 31.3347 20.6865 31.5382 20.4647L31.4389 21.5871Z" fill="#212931"/>
<path d="M35.9686 19.8547H34.4235L34.1726 21.7538H33.4316L34.0579 17.0411H34.7993L34.5488 18.9053H36.094L36.3442 17.0411H37.0856L36.4595 21.7538H35.7182L35.9686 19.8547Z" fill="#212931"/>
<path d="M38.6875 21.7538L39.3135 17.0411H41.2818L41.1565 17.9903H39.9296L39.8047 18.9053H40.9318L40.8069 19.8547H39.6791L39.5538 20.8042H40.7807L40.6554 21.7538H38.6875Z" fill="#212931"/>
</svg>
