<svg width="54" height="54" viewBox="0 0 54 54" fill="none" xmlns="http://www.w3.org/2000/svg">
<g clip-path="url(#clip0_213_387)">
<path d="M13.9742 7.45126C13.9742 3.81698 14.971 1.83992 20.4745 0.898466C24.2109 0.258205 29.0017 0.178173 33.4704 0.898466C37 1.46803 39.9707 4.03841 39.9707 7.45126V19.4415C39.9707 22.9581 37.0865 25.8387 33.4704 25.8387H20.4745C16.0639 25.8387 12.3466 29.5154 12.3466 33.6721V39.4248H7.87807C4.0983 39.4248 1.89761 36.7603 0.973131 33.0318C-0.273879 28.0228 -0.220942 25.0384 0.973131 20.2413C2.0084 16.0564 5.31639 13.8483 9.09644 13.8483H26.9748V12.2476H13.974V7.451L13.9742 7.45126Z" fill="#212931"/>
<path d="M39.9711 45.8223C39.9711 49.4566 36.745 51.2973 33.4708 52.2153C28.545 53.5993 24.5917 53.3875 20.4749 52.2153C17.0367 51.2362 13.9746 49.2354 13.9746 45.8223V33.8321C13.9746 30.3813 16.9167 27.4348 20.4749 27.4348H33.4708C37.7996 27.4348 41.5988 23.7773 41.5988 19.4414V13.8488H46.4716C50.2563 13.8488 52.0382 16.5979 52.9719 20.2418C54.2719 25.3025 54.3297 29.0872 52.9719 33.0323C51.6575 36.8642 50.2514 39.4253 46.4716 39.4253H26.9752V41.0259H39.9711V45.8225V45.8223Z" fill="#212931"/>
<path d="M17.2246 6.65574C17.2246 5.32826 18.3128 4.25476 19.6613 4.25476C21.0047 4.25476 22.098 5.328 22.098 6.65574C22.098 7.97894 21.0049 9.05191 19.6613 9.05191C18.3134 9.05191 17.2246 7.97868 17.2246 6.65574ZM31.8476 46.6181C31.8476 45.2949 32.9407 44.2219 34.2844 44.2219C35.6323 44.2219 36.7211 45.2952 36.7211 46.6181C36.7211 47.9456 35.6329 49.0191 34.2844 49.0191C32.941 49.0191 31.8476 47.9459 31.8476 46.6181Z" fill="#2D2E32"/>
</g>
<defs>
<clipPath id="clip0_213_387">
<rect width="54" height="54" fill="white"/>
</clipPath>
</defs>
</svg>
