<svg width="54" height="40" viewBox="0 0 54 40" fill="none" xmlns="http://www.w3.org/2000/svg">
<path fill-rule="evenodd" clip-rule="evenodd" d="M27 34.7393C12.0879 34.7393 0 26.9625 0 17.3696C0 7.77675 12.0883 0 27 0C41.9117 0 54 7.77675 54 17.3696C54 26.9625 41.9117 34.7393 27 34.7393ZM31.1329 6.79104C19.7987 6.79104 10.6107 12.1076 10.6107 18.6656C10.6107 25.2237 19.7991 30.5403 31.1329 30.5403C42.4668 30.5403 50.8311 26.9054 50.8311 18.6656C50.8311 10.4285 42.4668 6.79104 31.1329 6.79104Z" fill="url(#paint0_linear_212_76)"/>
<path fill-rule="evenodd" clip-rule="evenodd" d="M41.1197 26.9034C41.1197 26.9034 42.7536 27.3772 43.7034 27.8386C44.0329 27.9984 44.6028 28.3182 45.0139 28.7378C45.4167 29.1489 45.6131 29.565 45.6131 29.565L52.0534 39.9954L41.6442 40L36.7766 31.2228C36.7766 31.2228 35.7799 29.5777 35.1665 29.1006C34.6549 28.7026 34.4368 28.5613 33.9307 28.5613H31.4578L31.4599 39.9967L22.249 40V10.7887H40.7447C40.7447 10.7887 49.1695 10.9345 49.1695 18.634C49.1695 26.3334 41.1191 26.9064 41.1191 26.9064L41.1197 26.9034ZM37.1135 17.122L31.5373 17.1187L31.5346 22.0858L37.1135 22.0838C37.1135 22.0838 39.6972 22.076 39.6972 19.557C39.6972 16.9875 37.1135 17.122 37.1135 17.122Z" fill="#212931"/>
<defs>
<linearGradient id="paint0_linear_212_76" x1="1.76665e-06" y1="-21.3552" x2="51.0473" y2="57.9943" gradientUnits="userSpaceOnUse">
<stop stop-color="#212931"/>
<stop offset="1" stop-color="#252526"/>
</linearGradient>
</defs>
</svg>
