<svg width="61" height="60" viewBox="0 0 61 60" fill="none" xmlns="http://www.w3.org/2000/svg">
<path d="M24.5693 5.53632V7.34028H29.5304V12.865H31.4698V7.34028H36.5552V5.53632H31.4698V0H29.5304V5.53632H24.5693Z" fill="#212931"/>
<path d="M5.80664 13.8235V16.3497H13.3165V24.5245H16.1014V16.3497H23.7236V13.824H16.1014V5.77307H13.3159V13.8235H5.80664Z" fill="#212931"/>
<path d="M37.2764 13.8235V16.4736H44.7857V24.524H47.6835V16.4736H55.1927V13.8229H47.684V5.77307H44.7857V13.8235H37.2764Z" fill="#212931"/>
<path d="M20.4541 28.0197V31.3799H28.8095V40.3997H32.1917V31.3799H40.5471V28.0197H32.1917V18.9993H28.8095V28.0197H20.4541Z" fill="#212931"/>
<path d="M48.293 28.6169V30.9058H53.3784V36.555H55.9151V30.9058H61.0006V28.6169H55.9151V22.9683H53.3784V28.6169H48.293Z" fill="#212931"/>
<path d="M0 28.7413V30.6581H4.96105V36.07H6.90044V30.6581L11.9859 30.4776V28.7413H6.90044V23.3289H4.96105V28.7413H0Z" fill="#212931"/>
<path d="M5.80664 42.8014V45.4515H13.3165V53.5019H16.2143V45.4515H23.7236V42.8008H16.2143V34.751H13.3165V42.8008L5.80664 42.8014Z" fill="#212931"/>
<path d="M37.2764 42.8014V45.3271H44.7857V53.5019H47.6835V45.3271H55.1927V42.8014H47.684V34.751H44.7857V42.8008L37.2764 42.8014Z" fill="#212931"/>
<path d="M24.208 51.8218V54.1107H29.2929V59.7599H31.8301V54.1107H36.9151V51.8218H31.8301V46.1726H29.2929V51.8218H24.208Z" fill="#212931"/>
</svg>
